<?xml version="1.0" encoding="UTF-8"?>
<!-- Generated by Pixelmator Pro 3.3 -->
<svg width="828" height="1792" viewBox="0 0 828 1792" xmlns="http://www.w3.org/2000/svg" xmlns:xlink="http://www.w3.org/1999/xlink">
    <linearGradient id="linearGradient1" x1="414" y1="1792" x2="414" y2="0" gradientUnits="userSpaceOnUse">
        <stop offset="0.281754" stop-color="#ba54ef" stop-opacity="1"/>
        <stop offset="1" stop-color="#53b6f9" stop-opacity="1"/>
    </linearGradient>
    <path id="Background" fill="url(#linearGradient1)" fill-rule="evenodd" stroke="none" d="M 0 1792 L 828 1792 L 828 0 L 0 0 Z"/>
    <linearGradient id="linearGradient2" x1="-104.174431" y1="344.835625" x2="932.908976" y2="344.835625" gradientUnits="userSpaceOnUse" gradientTransform="matrix(0.683935 -0.729543 0.729543 0.683935 -120.605385 411.289376)">
        <stop offset="0" stop-color="#0078ff" stop-opacity="1"/>
        <stop offset="1" stop-color="#00ff6f" stop-opacity="1"/>
    </linearGradient>
    <path id="Esquina-redondeada" fill="url(#linearGradient2)" fill-rule="evenodd" stroke="none" d="M 1137.523926 327.389526 C 1080.831665 477.803101 -242.138824 520.491211 -308.409821 374.045166 C -317.491333 353.976685 -192.889206 238.49585 -172.820847 229.414307 C -54.755814 175.986572 871.629456 146.095093 992.893188 191.800537 C 1013.505249 199.569458 1145.292847 306.777344 1137.523926 327.389526 Z"/>
    <linearGradient id="linearGradient3" x1="147" y1="1305" x2="1241" y2="1305" gradientUnits="userSpaceOnUse">
        <stop offset="0" stop-color="#00cbff" stop-opacity="1"/>
        <stop offset="1" stop-color="#00ffdb" stop-opacity="1"/>
    </linearGradient>
    <path id="Cpula" fill="url(#linearGradient3)" fill-opacity="0.4224" fill-rule="evenodd" stroke="none" d="M 1241 1305 L 1241 1305 C 1241 1002.900146 996.099854 758 694 758 C 391.900177 758 147 1002.900146 147 1305 L 147 1852 L 1241 1852 L 1241 1305 Z"/>
</svg>
